<svg xmlns="http://www.w3.org/2000/svg" viewBox="0 0 2100 280" width="2100" height="280">
  <g transform="translate(0 0)">
    <svg viewBox="0 0 300 280" width="300" height="280" data-pose="adho-mukha-svanasana" data-style="stick" role="img" aria-label="stick (Adho Mukha Śvānāsana)">
      <defs>
        <marker id="asanakit-arrow" viewBox="0 0 10 10" refX="8" refY="5" markerWidth="5" markerHeight="5" orient="auto-start-reverse" markerUnits="strokeWidth">
          <path d="M 0 0 L 10 5 L 0 10 z" fill="#c1121f"/>
        </marker>
      </defs>
      <rect data-layer="background" x="0" y="0" width="300" height="280" fill="#ffffff"/>
      <g data-layer="title">
        <text x="150" y="24.15" text-anchor="middle" fill="#111111" font-family="Helvetica Neue, Helvetica, Arial, sans-serif" font-size="21" font-weight="600">stick</text>
        <text x="150" y="42" text-anchor="middle" fill="#666666" font-family="Helvetica Neue, Helvetica, Arial, sans-serif" font-size="11.55" font-style="italic">Adho Mukha Śvānāsana</text>
      </g>
      <g data-layer="props">
        <rect data-prop="mat" x="22.642" y="203.104" width="254.717" height="8.302" rx="4.151" fill="#f0f0f0" stroke="#111111" stroke-width="1.509"/>
      </g>
      <g data-layer="figure">
        <line data-bone="upperArmL" data-side="left" x1="169.622" y1="161.004" x2="189.633" y2="184.852" stroke="#6b6b6b" stroke-width="4.151" stroke-linecap="round" opacity="0.45"/>
        <line data-bone="forearmL" data-side="left" x1="189.633" y1="184.852" x2="207.219" y2="205.81" stroke="#6b6b6b" stroke-width="4.151" stroke-linecap="round" opacity="0.45"/>
        <line data-bone="handL" data-side="left" x1="207.219" y1="205.81" x2="217.495" y2="207.254" stroke="#6b6b6b" stroke-width="4.151" stroke-linecap="round" opacity="0.45"/>
        <line data-bone="footL" data-side="left" x1="82.505" y1="198.878" x2="98.462" y2="204.686" stroke="#6b6b6b" stroke-width="4.151" stroke-linecap="round" opacity="0.45"/>
        <line data-bone="shinL" data-side="left" x1="109.019" y1="161.012" x2="82.505" y2="198.878" stroke="#6b6b6b" stroke-width="4.151" stroke-linecap="round" opacity="0.45"/>
        <line data-bone="thighL" data-side="left" x1="135.534" y1="123.146" x2="109.019" y2="161.012" stroke="#6b6b6b" stroke-width="4.151" stroke-linecap="round" opacity="0.45"/>
        <line data-bone="clavicleL" data-side="left" x1="169.622" y1="161.004" x2="169.622" y2="161.004" stroke="#6b6b6b" stroke-width="4.151" stroke-linecap="round" opacity="0.45"/>
        <line data-bone="hipL" data-side="left" x1="135.534" y1="123.146" x2="135.534" y2="123.146" stroke="#6b6b6b" stroke-width="4.151" stroke-linecap="round" opacity="0.45"/>
        <line data-bone="pelvis" data-side="center" x1="135.534" y1="123.146" x2="148.159" y2="137.167" stroke="#111111" stroke-width="4.151" stroke-linecap="round"/>
        <line data-bone="spine" data-side="center" x1="148.159" y1="137.167" x2="169.622" y2="161.004" stroke="#111111" stroke-width="4.151" stroke-linecap="round"/>
        <line data-bone="neck" data-side="center" x1="169.622" y1="161.004" x2="177.197" y2="169.417" stroke="#111111" stroke-width="4.151" stroke-linecap="round"/>
        <line data-bone="head" data-side="center" x1="177.197" y1="169.417" x2="193.609" y2="187.645" stroke="#111111" stroke-width="4.151" stroke-linecap="round"/>
        <ellipse data-part="head" cx="185.403" cy="178.531" rx="8.679" ry="11.698" transform="rotate(138.000 185.403 178.531)" fill="#ffffff" stroke="#111111" stroke-width="3.774"/>
        <line data-bone="hipR" data-side="right" x1="135.534" y1="123.146" x2="135.534" y2="123.146" stroke="#111111" stroke-width="4.151" stroke-linecap="round"/>
        <line data-bone="clavicleR" data-side="right" x1="169.622" y1="161.004" x2="169.622" y2="161.004" stroke="#111111" stroke-width="4.151" stroke-linecap="round"/>
        <line data-bone="footR" data-side="right" x1="82.505" y1="198.878" x2="98.462" y2="204.686" stroke="#111111" stroke-width="4.151" stroke-linecap="round"/>
        <line data-bone="shinR" data-side="right" x1="109.019" y1="161.012" x2="82.505" y2="198.878" stroke="#111111" stroke-width="4.151" stroke-linecap="round"/>
        <line data-bone="thighR" data-side="right" x1="135.534" y1="123.146" x2="109.019" y2="161.012" stroke="#111111" stroke-width="4.151" stroke-linecap="round"/>
        <line data-bone="upperArmR" data-side="right" x1="169.622" y1="161.004" x2="189.633" y2="184.852" stroke="#111111" stroke-width="4.151" stroke-linecap="round"/>
        <line data-bone="forearmR" data-side="right" x1="189.633" y1="184.852" x2="207.219" y2="205.81" stroke="#111111" stroke-width="4.151" stroke-linecap="round"/>
        <line data-bone="handR" data-side="right" x1="207.219" y1="205.81" x2="217.495" y2="207.254" stroke="#111111" stroke-width="4.151" stroke-linecap="round"/>
        <g data-part="joints">
          <circle data-joint="shoulderL" cx="169.622" cy="161.004" r="2.642" fill="#6b6b6b"/>
          <circle data-joint="elbowL" cx="189.633" cy="184.852" r="2.642" fill="#6b6b6b"/>
          <circle data-joint="wristL" cx="207.219" cy="205.81" r="2.642" fill="#6b6b6b"/>
          <circle data-joint="shoulderR" cx="169.622" cy="161.004" r="2.642" fill="#111111"/>
          <circle data-joint="elbowR" cx="189.633" cy="184.852" r="2.642" fill="#111111"/>
          <circle data-joint="wristR" cx="207.219" cy="205.81" r="2.642" fill="#111111"/>
          <circle data-joint="hipJointL" cx="135.534" cy="123.146" r="2.642" fill="#6b6b6b"/>
          <circle data-joint="kneeL" cx="109.019" cy="161.012" r="2.642" fill="#6b6b6b"/>
          <circle data-joint="ankleL" cx="82.505" cy="198.878" r="2.642" fill="#6b6b6b"/>
          <circle data-joint="hipJointR" cx="135.534" cy="123.146" r="2.642" fill="#111111"/>
          <circle data-joint="kneeR" cx="109.019" cy="161.012" r="2.642" fill="#111111"/>
          <circle data-joint="ankleR" cx="82.505" cy="198.878" r="2.642" fill="#111111"/>
          <circle data-joint="chest" cx="169.622" cy="161.004" r="2.642" fill="#111111"/>
          <circle data-joint="hipCenter" cx="135.534" cy="123.146" r="2.642" fill="#111111"/>
        </g>
      </g>
    </svg>
  </g>
  <g transform="translate(300 0)">
    <svg viewBox="0 0 300 280" width="300" height="280" data-pose="adho-mukha-svanasana" data-style="anatomy" role="img" aria-label="anatomy (Adho Mukha Śvānāsana)">
      <defs>
        <marker id="asanakit-arrow" viewBox="0 0 10 10" refX="8" refY="5" markerWidth="5" markerHeight="5" orient="auto-start-reverse" markerUnits="strokeWidth">
          <path d="M 0 0 L 10 5 L 0 10 z" fill="#c1121f"/>
        </marker>
      </defs>
      <rect data-layer="background" x="0" y="0" width="300" height="280" fill="#ffffff"/>
      <g data-layer="title">
        <text x="150" y="24.15" text-anchor="middle" fill="#111111" font-family="Helvetica Neue, Helvetica, Arial, sans-serif" font-size="21" font-weight="600">anatomy</text>
        <text x="150" y="42" text-anchor="middle" fill="#666666" font-family="Helvetica Neue, Helvetica, Arial, sans-serif" font-size="11.55" font-style="italic">Adho Mukha Śvānāsana</text>
      </g>
      <g data-layer="props">
        <rect data-prop="mat" x="22.642" y="203.104" width="254.717" height="8.302" rx="4.151" fill="#f0f0f0" stroke="#111111" stroke-width="1.509"/>
      </g>
      <g data-layer="muscles">
        <path data-muscle="deltoid" data-muscle-state="engaged" d="M168.021,159.096Q172.023,163.866,176.025,168.635" fill="none" stroke="#d1495b" stroke-width="10.943" stroke-linecap="round" opacity="0.95"/>
        <path data-muscle="deltoid" data-muscle-state="engaged" d="M168.021,159.096Q172.023,163.866,176.025,168.635" fill="none" stroke="#d1495b" stroke-width="10.943" stroke-linecap="round" opacity="0.95"/>
        <path data-muscle="rotatorCuff" data-muscle-state="resting" d="M166.887,161.267Q166.564,164.992,170.289,165.321" fill="none" stroke="#e0cfc2" stroke-width="7.547" stroke-linecap="round" opacity="0.95"/>
        <path data-muscle="rotatorCuff" data-muscle-state="resting" d="M166.887,161.267Q166.564,164.992,170.289,165.321" fill="none" stroke="#e0cfc2" stroke-width="7.547" stroke-linecap="round" opacity="0.95"/>
        <path data-muscle="biceps" data-muscle-state="resting" d="M176.114,162.871Q185.542,169.997,190.923,180.519" fill="none" stroke="#e0cfc2" stroke-width="7.547" stroke-linecap="round" opacity="0.95"/>
        <path data-muscle="biceps" data-muscle-state="resting" d="M176.114,162.871Q185.542,169.997,190.923,180.519" fill="none" stroke="#e0cfc2" stroke-width="7.547" stroke-linecap="round" opacity="0.95"/>
        <path data-muscle="triceps" data-muscle-state="engaged" d="M169.733,167.007Q175.714,178.244,185.742,186.086" fill="none" stroke="#d1495b" stroke-width="7.547" stroke-linecap="round" opacity="0.95"/>
        <path data-muscle="triceps" data-muscle-state="engaged" d="M169.733,167.007Q175.714,178.244,185.742,186.086" fill="none" stroke="#d1495b" stroke-width="7.547" stroke-linecap="round" opacity="0.95"/>
        <path data-muscle="forearmFlexors" data-muscle-state="resting" d="M192.247,184.445Q200.561,190.861,205.436,200.163" fill="none" stroke="#e0cfc2" stroke-width="6.415" stroke-linecap="round" opacity="0.95"/>
        <path data-muscle="forearmFlexors" data-muscle-state="resting" d="M192.247,184.445Q200.561,190.861,205.436,200.163" fill="none" stroke="#e0cfc2" stroke-width="6.415" stroke-linecap="round" opacity="0.95"/>
        <path data-muscle="pectoralis" data-muscle-state="resting" d="M155.476,154.317Q156.404,161.467,163.418,163.137" fill="none" stroke="#e0cfc2" stroke-width="11.698" stroke-linecap="round" opacity="0.95"/>
        <path data-muscle="latissimus" data-muscle-state="stretched" d="M160.636,139.745Q168.026,143.018,170.508,150.71" fill="none" stroke="#3d7ea6" stroke-width="9.434" stroke-linecap="round" opacity="0.95"/>
        <path data-muscle="trapezius" data-muscle-state="resting" d="M169.536,152.449Q174.565,153.1,174.687,158.17" fill="none" stroke="#e0cfc2" stroke-width="9.434" stroke-linecap="round" opacity="0.95"/>
        <path data-muscle="serratus" data-muscle-state="engaged" d="M156.415,149.156Q157.626,153.461,161.781,155.115" fill="none" stroke="#d1495b" stroke-width="5.66" stroke-linecap="round" opacity="0.95"/>
        <path data-muscle="erectorSpinae" data-muscle-state="resting" d="M152.234,134.361Q163.033,143.197,170.692,154.861" fill="none" stroke="#e0cfc2" stroke-width="6.038" stroke-linecap="round" opacity="0.95"/>
        <path data-muscle="rectusAbdominis" data-muscle-state="resting" d="M143.952,140.955Q147.263,150.059,155.972,154.303" fill="none" stroke="#e0cfc2" stroke-width="10.377" stroke-linecap="round" opacity="0.95"/>
        <path data-muscle="obliques" data-muscle-state="resting" d="M147.549,139.874Q150.416,147.005,157.208,150.601" fill="none" stroke="#e0cfc2" stroke-width="7.547" stroke-linecap="round" opacity="0.95"/>
        <path data-muscle="gluteus" data-muscle-state="resting" d="M132.488,117.627Q124.941,120.807,124.534,128.987" fill="none" stroke="#e0cfc2" stroke-width="12.453" stroke-linecap="round" opacity="0.95"/>
        <path data-muscle="gluteus" data-muscle-state="resting" d="M132.488,117.627Q124.941,120.807,124.534,128.987" fill="none" stroke="#e0cfc2" stroke-width="12.453" stroke-linecap="round" opacity="0.95"/>
        <path data-muscle="hipFlexors" data-muscle-state="resting" d="M141.231,124.878Q138.141,133.436,131.156,139.267" fill="none" stroke="#e0cfc2" stroke-width="6.792" stroke-linecap="round" opacity="0.95"/>
        <path data-muscle="hipFlexors" data-muscle-state="resting" d="M141.231,124.878Q138.141,133.436,131.156,139.267" fill="none" stroke="#e0cfc2" stroke-width="6.792" stroke-linecap="round" opacity="0.95"/>
        <path data-muscle="quadriceps" data-muscle-state="engaged" d="M135.531,131.044Q127.473,148.539,113.789,162.095" fill="none" stroke="#d1495b" stroke-width="9.811" stroke-linecap="round" opacity="0.95"/>
        <path data-muscle="quadriceps" data-muscle-state="engaged" d="M135.531,131.044Q127.473,148.539,113.789,162.095" fill="none" stroke="#d1495b" stroke-width="9.811" stroke-linecap="round" opacity="0.95"/>
        <path data-muscle="hamstrings" data-muscle-state="stretched" d="M128.334,124.876Q114.866,138.583,106.592,155.926" fill="none" stroke="#3d7ea6" stroke-width="9.057" stroke-linecap="round" opacity="0.95"/>
        <path data-muscle="hamstrings" data-muscle-state="stretched" d="M128.334,124.876Q114.866,138.583,106.592,155.926" fill="none" stroke="#3d7ea6" stroke-width="9.057" stroke-linecap="round" opacity="0.95"/>
        <path data-muscle="adductors" data-muscle-state="resting" d="M133.413,126.175Q124.133,139.428,114.853,152.681" fill="none" stroke="#e0cfc2" stroke-width="5.66" stroke-linecap="round" opacity="0.95"/>
        <path data-muscle="adductors" data-muscle-state="resting" d="M133.413,126.175Q124.133,139.428,114.853,152.681" fill="none" stroke="#e0cfc2" stroke-width="5.66" stroke-linecap="round" opacity="0.95"/>
        <path data-muscle="gastrocnemius" data-muscle-state="stretched" d="M104.249,159.929Q94.072,169.168,88.871,181.892" fill="none" stroke="#3d7ea6" stroke-width="8.679" stroke-linecap="round" opacity="0.95"/>
        <path data-muscle="gastrocnemius" data-muscle-state="stretched" d="M104.249,159.929Q94.072,169.168,88.871,181.892" fill="none" stroke="#3d7ea6" stroke-width="8.679" stroke-linecap="round" opacity="0.95"/>
        <path data-muscle="tibialisAnterior" data-muscle-state="resting" d="M109.901,165.016Q102.775,178.648,92.402,190.007" fill="none" stroke="#e0cfc2" stroke-width="5.66" stroke-linecap="round" opacity="0.95"/>
        <path data-muscle="tibialisAnterior" data-muscle-state="resting" d="M109.901,165.016Q102.775,178.648,92.402,190.007" fill="none" stroke="#e0cfc2" stroke-width="5.66" stroke-linecap="round" opacity="0.95"/>
      </g>
      <g data-layer="figure">
        <line data-bone="upperArmL" data-side="left" x1="169.622" y1="161.004" x2="189.633" y2="184.852" stroke="#8f8f8f" stroke-width="2.264" stroke-linecap="round" opacity="0.45"/>
        <line data-bone="forearmL" data-side="left" x1="189.633" y1="184.852" x2="207.219" y2="205.81" stroke="#8f8f8f" stroke-width="2.264" stroke-linecap="round" opacity="0.45"/>
        <line data-bone="handL" data-side="left" x1="207.219" y1="205.81" x2="217.495" y2="207.254" stroke="#8f8f8f" stroke-width="2.264" stroke-linecap="round" opacity="0.45"/>
        <line data-bone="footL" data-side="left" x1="82.505" y1="198.878" x2="98.462" y2="204.686" stroke="#8f8f8f" stroke-width="2.264" stroke-linecap="round" opacity="0.45"/>
        <line data-bone="shinL" data-side="left" x1="109.019" y1="161.012" x2="82.505" y2="198.878" stroke="#8f8f8f" stroke-width="2.264" stroke-linecap="round" opacity="0.45"/>
        <line data-bone="thighL" data-side="left" x1="135.534" y1="123.146" x2="109.019" y2="161.012" stroke="#8f8f8f" stroke-width="2.264" stroke-linecap="round" opacity="0.45"/>
        <line data-bone="clavicleL" data-side="left" x1="169.622" y1="161.004" x2="169.622" y2="161.004" stroke="#8f8f8f" stroke-width="2.264" stroke-linecap="round" opacity="0.45"/>
        <line data-bone="hipL" data-side="left" x1="135.534" y1="123.146" x2="135.534" y2="123.146" stroke="#8f8f8f" stroke-width="2.264" stroke-linecap="round" opacity="0.45"/>
        <line data-bone="pelvis" data-side="center" x1="135.534" y1="123.146" x2="148.159" y2="137.167" stroke="#3d3d3d" stroke-width="2.264" stroke-linecap="round"/>
        <line data-bone="spine" data-side="center" x1="148.159" y1="137.167" x2="169.622" y2="161.004" stroke="#3d3d3d" stroke-width="2.264" stroke-linecap="round"/>
        <line data-bone="neck" data-side="center" x1="169.622" y1="161.004" x2="177.197" y2="169.417" stroke="#3d3d3d" stroke-width="2.264" stroke-linecap="round"/>
        <line data-bone="head" data-side="center" x1="177.197" y1="169.417" x2="193.609" y2="187.645" stroke="#3d3d3d" stroke-width="2.264" stroke-linecap="round"/>
        <ellipse data-part="head" cx="185.403" cy="178.531" rx="8.679" ry="11.698" transform="rotate(138.000 185.403 178.531)" fill="#f5efe8" stroke="#3d3d3d" stroke-width="2.264"/>
        <line data-bone="hipR" data-side="right" x1="135.534" y1="123.146" x2="135.534" y2="123.146" stroke="#3d3d3d" stroke-width="2.264" stroke-linecap="round"/>
        <line data-bone="clavicleR" data-side="right" x1="169.622" y1="161.004" x2="169.622" y2="161.004" stroke="#3d3d3d" stroke-width="2.264" stroke-linecap="round"/>
        <line data-bone="footR" data-side="right" x1="82.505" y1="198.878" x2="98.462" y2="204.686" stroke="#3d3d3d" stroke-width="2.264" stroke-linecap="round"/>
        <line data-bone="shinR" data-side="right" x1="109.019" y1="161.012" x2="82.505" y2="198.878" stroke="#3d3d3d" stroke-width="2.264" stroke-linecap="round"/>
        <line data-bone="thighR" data-side="right" x1="135.534" y1="123.146" x2="109.019" y2="161.012" stroke="#3d3d3d" stroke-width="2.264" stroke-linecap="round"/>
        <line data-bone="upperArmR" data-side="right" x1="169.622" y1="161.004" x2="189.633" y2="184.852" stroke="#3d3d3d" stroke-width="2.264" stroke-linecap="round"/>
        <line data-bone="forearmR" data-side="right" x1="189.633" y1="184.852" x2="207.219" y2="205.81" stroke="#3d3d3d" stroke-width="2.264" stroke-linecap="round"/>
        <line data-bone="handR" data-side="right" x1="207.219" y1="205.81" x2="217.495" y2="207.254" stroke="#3d3d3d" stroke-width="2.264" stroke-linecap="round"/>
        <g data-part="joints">
          <circle data-joint="shoulderL" cx="169.622" cy="161.004" r="1.698" fill="#8f8f8f"/>
          <circle data-joint="elbowL" cx="189.633" cy="184.852" r="1.698" fill="#8f8f8f"/>
          <circle data-joint="wristL" cx="207.219" cy="205.81" r="1.698" fill="#8f8f8f"/>
          <circle data-joint="shoulderR" cx="169.622" cy="161.004" r="1.698" fill="#3d3d3d"/>
          <circle data-joint="elbowR" cx="189.633" cy="184.852" r="1.698" fill="#3d3d3d"/>
          <circle data-joint="wristR" cx="207.219" cy="205.81" r="1.698" fill="#3d3d3d"/>
          <circle data-joint="hipJointL" cx="135.534" cy="123.146" r="1.698" fill="#8f8f8f"/>
          <circle data-joint="kneeL" cx="109.019" cy="161.012" r="1.698" fill="#8f8f8f"/>
          <circle data-joint="ankleL" cx="82.505" cy="198.878" r="1.698" fill="#8f8f8f"/>
          <circle data-joint="hipJointR" cx="135.534" cy="123.146" r="1.698" fill="#3d3d3d"/>
          <circle data-joint="kneeR" cx="109.019" cy="161.012" r="1.698" fill="#3d3d3d"/>
          <circle data-joint="ankleR" cx="82.505" cy="198.878" r="1.698" fill="#3d3d3d"/>
          <circle data-joint="chest" cx="169.622" cy="161.004" r="1.698" fill="#3d3d3d"/>
          <circle data-joint="hipCenter" cx="135.534" cy="123.146" r="1.698" fill="#3d3d3d"/>
        </g>
      </g>
    </svg>
  </g>
  <g transform="translate(600 0)">
    <svg viewBox="0 0 300 280" width="300" height="280" data-pose="adho-mukha-svanasana" data-style="silhouette" role="img" aria-label="silhouette (Adho Mukha Śvānāsana)">
      <defs>
        <marker id="asanakit-arrow" viewBox="0 0 10 10" refX="8" refY="5" markerWidth="5" markerHeight="5" orient="auto-start-reverse" markerUnits="strokeWidth">
          <path d="M 0 0 L 10 5 L 0 10 z" fill="#c1121f"/>
        </marker>
      </defs>
      <rect data-layer="background" x="0" y="0" width="300" height="280" fill="#ffffff"/>
      <g data-layer="title">
        <text x="150" y="24.15" text-anchor="middle" fill="#111111" font-family="Helvetica Neue, Helvetica, Arial, sans-serif" font-size="21" font-weight="600">silhouette</text>
        <text x="150" y="42" text-anchor="middle" fill="#666666" font-family="Helvetica Neue, Helvetica, Arial, sans-serif" font-size="11.55" font-style="italic">Adho Mukha Śvānāsana</text>
      </g>
      <g data-layer="props">
        <rect data-prop="mat" x="22.642" y="203.104" width="254.717" height="8.302" rx="4.151" fill="#f0f0f0" stroke="#111111" stroke-width="1.509"/>
      </g>
      <g data-layer="figure">
        <line data-bone="upperArmL" data-side="left" x1="169.622" y1="161.004" x2="189.633" y2="184.852" stroke="#4d4d4d" stroke-width="11.698" stroke-linecap="round" opacity="0.45"/>
        <line data-bone="forearmL" data-side="left" x1="189.633" y1="184.852" x2="207.219" y2="205.81" stroke="#4d4d4d" stroke-width="11.698" stroke-linecap="round" opacity="0.45"/>
        <line data-bone="handL" data-side="left" x1="207.219" y1="205.81" x2="217.495" y2="207.254" stroke="#4d4d4d" stroke-width="11.698" stroke-linecap="round" opacity="0.45"/>
        <line data-bone="footL" data-side="left" x1="82.505" y1="198.878" x2="98.462" y2="204.686" stroke="#4d4d4d" stroke-width="11.698" stroke-linecap="round" opacity="0.45"/>
        <line data-bone="shinL" data-side="left" x1="109.019" y1="161.012" x2="82.505" y2="198.878" stroke="#4d4d4d" stroke-width="11.698" stroke-linecap="round" opacity="0.45"/>
        <line data-bone="thighL" data-side="left" x1="135.534" y1="123.146" x2="109.019" y2="161.012" stroke="#4d4d4d" stroke-width="11.698" stroke-linecap="round" opacity="0.45"/>
        <line data-bone="clavicleL" data-side="left" x1="169.622" y1="161.004" x2="169.622" y2="161.004" stroke="#4d4d4d" stroke-width="11.698" stroke-linecap="round" opacity="0.45"/>
        <line data-bone="hipL" data-side="left" x1="135.534" y1="123.146" x2="135.534" y2="123.146" stroke="#4d4d4d" stroke-width="11.698" stroke-linecap="round" opacity="0.45"/>
        <line data-bone="pelvis" data-side="center" x1="135.534" y1="123.146" x2="148.159" y2="137.167" stroke="#111111" stroke-width="11.698" stroke-linecap="round"/>
        <path data-part="torso" d="M169.622,161.004C169.622,161.004,169.622,161.004,169.622,161.004C169.622,161.004,135.534,123.146,135.534,123.146C135.534,123.146,135.534,123.146,135.534,123.146C135.534,123.146,135.534,123.146,135.534,123.146C135.534,123.146,169.622,161.004,169.622,161.004C169.622,161.004,169.622,161.004,169.622,161.004" fill="#111111" stroke="#111111" stroke-width="14.151" stroke-linejoin="round"/>
        <line data-bone="spine" data-side="center" x1="148.159" y1="137.167" x2="169.622" y2="161.004" stroke="#111111" stroke-width="11.698" stroke-linecap="round"/>
        <line data-bone="neck" data-side="center" x1="169.622" y1="161.004" x2="177.197" y2="169.417" stroke="#111111" stroke-width="11.698" stroke-linecap="round"/>
        <line data-bone="head" data-side="center" x1="177.197" y1="169.417" x2="193.609" y2="187.645" stroke="#111111" stroke-width="11.698" stroke-linecap="round"/>
        <ellipse data-part="head" cx="185.403" cy="178.531" rx="9.434" ry="12.453" transform="rotate(138.000 185.403 178.531)" fill="#111111" stroke="#111111" stroke-width="1.887"/>
        <line data-bone="hipR" data-side="right" x1="135.534" y1="123.146" x2="135.534" y2="123.146" stroke="#111111" stroke-width="11.698" stroke-linecap="round"/>
        <line data-bone="clavicleR" data-side="right" x1="169.622" y1="161.004" x2="169.622" y2="161.004" stroke="#111111" stroke-width="11.698" stroke-linecap="round"/>
        <line data-bone="footR" data-side="right" x1="82.505" y1="198.878" x2="98.462" y2="204.686" stroke="#111111" stroke-width="11.698" stroke-linecap="round"/>
        <line data-bone="shinR" data-side="right" x1="109.019" y1="161.012" x2="82.505" y2="198.878" stroke="#111111" stroke-width="11.698" stroke-linecap="round"/>
        <line data-bone="thighR" data-side="right" x1="135.534" y1="123.146" x2="109.019" y2="161.012" stroke="#111111" stroke-width="11.698" stroke-linecap="round"/>
        <line data-bone="upperArmR" data-side="right" x1="169.622" y1="161.004" x2="189.633" y2="184.852" stroke="#111111" stroke-width="11.698" stroke-linecap="round"/>
        <line data-bone="forearmR" data-side="right" x1="189.633" y1="184.852" x2="207.219" y2="205.81" stroke="#111111" stroke-width="11.698" stroke-linecap="round"/>
        <line data-bone="handR" data-side="right" x1="207.219" y1="205.81" x2="217.495" y2="207.254" stroke="#111111" stroke-width="11.698" stroke-linecap="round"/>
      </g>
    </svg>
  </g>
  <g transform="translate(900 0)">
    <svg viewBox="0 0 300 280" width="300" height="280" data-pose="adho-mukha-svanasana" data-style="blueprint" role="img" aria-label="blueprint (Adho Mukha Śvānāsana)">
      <defs>
        <marker id="asanakit-arrow" viewBox="0 0 10 10" refX="8" refY="5" markerWidth="5" markerHeight="5" orient="auto-start-reverse" markerUnits="strokeWidth">
          <path d="M 0 0 L 10 5 L 0 10 z" fill="#c1121f"/>
        </marker>
      </defs>
      <rect data-layer="background" x="0" y="0" width="300" height="280" fill="#f3f7fb"/>
      <g data-layer="title">
        <text x="150" y="24.15" text-anchor="middle" fill="#1b3a5c" font-family="Helvetica Neue, Helvetica, Arial, sans-serif" font-size="21" font-weight="600">blueprint</text>
        <text x="150" y="42" text-anchor="middle" fill="#5c7998" font-family="Helvetica Neue, Helvetica, Arial, sans-serif" font-size="11.55" font-style="italic">Adho Mukha Śvānāsana</text>
      </g>
      <g data-layer="props">
        <rect data-prop="mat" x="22.642" y="203.104" width="254.717" height="8.302" rx="4.151" fill="#e2ecf5" stroke="#1b3a5c" stroke-width="1.132"/>
      </g>
      <g data-layer="figure">
        <line data-bone="upperArmL" data-side="left" x1="169.622" y1="161.004" x2="189.633" y2="184.852" stroke="#7591b3" stroke-width="2.264" stroke-linecap="round" opacity="0.45"/>
        <line data-bone="forearmL" data-side="left" x1="189.633" y1="184.852" x2="207.219" y2="205.81" stroke="#7591b3" stroke-width="2.264" stroke-linecap="round" opacity="0.45"/>
        <line data-bone="handL" data-side="left" x1="207.219" y1="205.81" x2="217.495" y2="207.254" stroke="#7591b3" stroke-width="2.264" stroke-linecap="round" opacity="0.45"/>
        <line data-bone="footL" data-side="left" x1="82.505" y1="198.878" x2="98.462" y2="204.686" stroke="#7591b3" stroke-width="2.264" stroke-linecap="round" opacity="0.45"/>
        <line data-bone="shinL" data-side="left" x1="109.019" y1="161.012" x2="82.505" y2="198.878" stroke="#7591b3" stroke-width="2.264" stroke-linecap="round" opacity="0.45"/>
        <line data-bone="thighL" data-side="left" x1="135.534" y1="123.146" x2="109.019" y2="161.012" stroke="#7591b3" stroke-width="2.264" stroke-linecap="round" opacity="0.45"/>
        <line data-bone="clavicleL" data-side="left" x1="169.622" y1="161.004" x2="169.622" y2="161.004" stroke="#7591b3" stroke-width="2.264" stroke-linecap="round" opacity="0.45"/>
        <line data-bone="hipL" data-side="left" x1="135.534" y1="123.146" x2="135.534" y2="123.146" stroke="#7591b3" stroke-width="2.264" stroke-linecap="round" opacity="0.45"/>
        <line data-bone="pelvis" data-side="center" x1="135.534" y1="123.146" x2="148.159" y2="137.167" stroke="#1b3a5c" stroke-width="2.264" stroke-linecap="round"/>
        <line data-bone="spine" data-side="center" x1="148.159" y1="137.167" x2="169.622" y2="161.004" stroke="#1b3a5c" stroke-width="2.264" stroke-linecap="round"/>
        <line data-bone="neck" data-side="center" x1="169.622" y1="161.004" x2="177.197" y2="169.417" stroke="#1b3a5c" stroke-width="2.264" stroke-linecap="round"/>
        <line data-bone="head" data-side="center" x1="177.197" y1="169.417" x2="193.609" y2="187.645" stroke="#1b3a5c" stroke-width="2.264" stroke-linecap="round"/>
        <ellipse data-part="head" cx="185.403" cy="178.531" rx="9.434" ry="9.434" transform="rotate(138.000 185.403 178.531)" fill="none" stroke="#1b3a5c" stroke-width="2.264"/>
        <line data-bone="hipR" data-side="right" x1="135.534" y1="123.146" x2="135.534" y2="123.146" stroke="#1b3a5c" stroke-width="2.264" stroke-linecap="round"/>
        <line data-bone="clavicleR" data-side="right" x1="169.622" y1="161.004" x2="169.622" y2="161.004" stroke="#1b3a5c" stroke-width="2.264" stroke-linecap="round"/>
        <line data-bone="footR" data-side="right" x1="82.505" y1="198.878" x2="98.462" y2="204.686" stroke="#1b3a5c" stroke-width="2.264" stroke-linecap="round"/>
        <line data-bone="shinR" data-side="right" x1="109.019" y1="161.012" x2="82.505" y2="198.878" stroke="#1b3a5c" stroke-width="2.264" stroke-linecap="round"/>
        <line data-bone="thighR" data-side="right" x1="135.534" y1="123.146" x2="109.019" y2="161.012" stroke="#1b3a5c" stroke-width="2.264" stroke-linecap="round"/>
        <line data-bone="upperArmR" data-side="right" x1="169.622" y1="161.004" x2="189.633" y2="184.852" stroke="#1b3a5c" stroke-width="2.264" stroke-linecap="round"/>
        <line data-bone="forearmR" data-side="right" x1="189.633" y1="184.852" x2="207.219" y2="205.81" stroke="#1b3a5c" stroke-width="2.264" stroke-linecap="round"/>
        <line data-bone="handR" data-side="right" x1="207.219" y1="205.81" x2="217.495" y2="207.254" stroke="#1b3a5c" stroke-width="2.264" stroke-linecap="round"/>
        <g data-part="joints">
          <circle data-joint="shoulderL" cx="169.622" cy="161.004" r="1.887" fill="#7591b3"/>
          <circle data-joint="elbowL" cx="189.633" cy="184.852" r="1.887" fill="#7591b3"/>
          <circle data-joint="wristL" cx="207.219" cy="205.81" r="1.887" fill="#7591b3"/>
          <circle data-joint="shoulderR" cx="169.622" cy="161.004" r="1.887" fill="#1b3a5c"/>
          <circle data-joint="elbowR" cx="189.633" cy="184.852" r="1.887" fill="#1b3a5c"/>
          <circle data-joint="wristR" cx="207.219" cy="205.81" r="1.887" fill="#1b3a5c"/>
          <circle data-joint="hipJointL" cx="135.534" cy="123.146" r="1.887" fill="#7591b3"/>
          <circle data-joint="kneeL" cx="109.019" cy="161.012" r="1.887" fill="#7591b3"/>
          <circle data-joint="ankleL" cx="82.505" cy="198.878" r="1.887" fill="#7591b3"/>
          <circle data-joint="hipJointR" cx="135.534" cy="123.146" r="1.887" fill="#1b3a5c"/>
          <circle data-joint="kneeR" cx="109.019" cy="161.012" r="1.887" fill="#1b3a5c"/>
          <circle data-joint="ankleR" cx="82.505" cy="198.878" r="1.887" fill="#1b3a5c"/>
          <circle data-joint="chest" cx="169.622" cy="161.004" r="1.887" fill="#1b3a5c"/>
          <circle data-joint="hipCenter" cx="135.534" cy="123.146" r="1.887" fill="#1b3a5c"/>
        </g>
      </g>
    </svg>
  </g>
  <g transform="translate(1200 0)">
    <svg viewBox="0 0 300 280" width="300" height="280" data-pose="adho-mukha-svanasana" data-style="ink" role="img" aria-label="ink (Adho Mukha Śvānāsana)">
      <defs>
        <marker id="asanakit-arrow" viewBox="0 0 10 10" refX="8" refY="5" markerWidth="5" markerHeight="5" orient="auto-start-reverse" markerUnits="strokeWidth">
          <path d="M 0 0 L 10 5 L 0 10 z" fill="#c1121f"/>
        </marker>
      </defs>
      <rect data-layer="background" x="0" y="0" width="300" height="280" fill="#ffffff"/>
      <g data-layer="title">
        <text x="150" y="24.15" text-anchor="middle" fill="#111111" font-family="Helvetica Neue, Helvetica, Arial, sans-serif" font-size="21" font-weight="600">ink</text>
        <text x="150" y="42" text-anchor="middle" fill="#666666" font-family="Helvetica Neue, Helvetica, Arial, sans-serif" font-size="11.55" font-style="italic">Adho Mukha Śvānāsana</text>
      </g>
      <g data-layer="props">
        <rect data-prop="mat" x="22.642" y="203.104" width="254.717" height="8.302" rx="4.151" fill="#f0f0f0" stroke="#111111" stroke-width="1.509"/>
      </g>
      <g data-layer="figure">
        <line data-bone="upperArmL" data-side="left" x1="169.622" y1="161.004" x2="189.633" y2="184.852" stroke="#5d5d5d" stroke-width="7.17" stroke-linecap="round" opacity="0.45"/>
        <line data-bone="forearmL" data-side="left" x1="189.633" y1="184.852" x2="207.219" y2="205.81" stroke="#5d5d5d" stroke-width="7.17" stroke-linecap="round" opacity="0.45"/>
        <line data-bone="handL" data-side="left" x1="207.219" y1="205.81" x2="217.495" y2="207.254" stroke="#5d5d5d" stroke-width="7.17" stroke-linecap="round" opacity="0.45"/>
        <line data-bone="footL" data-side="left" x1="82.505" y1="198.878" x2="98.462" y2="204.686" stroke="#5d5d5d" stroke-width="7.17" stroke-linecap="round" opacity="0.45"/>
        <line data-bone="shinL" data-side="left" x1="109.019" y1="161.012" x2="82.505" y2="198.878" stroke="#5d5d5d" stroke-width="7.17" stroke-linecap="round" opacity="0.45"/>
        <line data-bone="thighL" data-side="left" x1="135.534" y1="123.146" x2="109.019" y2="161.012" stroke="#5d5d5d" stroke-width="7.17" stroke-linecap="round" opacity="0.45"/>
        <line data-bone="clavicleL" data-side="left" x1="169.622" y1="161.004" x2="169.622" y2="161.004" stroke="#5d5d5d" stroke-width="7.17" stroke-linecap="round" opacity="0.45"/>
        <line data-bone="hipL" data-side="left" x1="135.534" y1="123.146" x2="135.534" y2="123.146" stroke="#5d5d5d" stroke-width="7.17" stroke-linecap="round" opacity="0.45"/>
        <line data-bone="pelvis" data-side="center" x1="135.534" y1="123.146" x2="148.159" y2="137.167" stroke="#111111" stroke-width="7.17" stroke-linecap="round"/>
        <path data-part="torso" d="M169.622,161.004C169.622,161.004,169.622,161.004,169.622,161.004C169.622,161.004,135.534,123.146,135.534,123.146C135.534,123.146,135.534,123.146,135.534,123.146C135.534,123.146,135.534,123.146,135.534,123.146C135.534,123.146,169.622,161.004,169.622,161.004C169.622,161.004,169.622,161.004,169.622,161.004" fill="#111111" stroke="#111111" stroke-width="5.66" stroke-linejoin="round"/>
        <line data-bone="spine" data-side="center" x1="148.159" y1="137.167" x2="169.622" y2="161.004" stroke="#111111" stroke-width="7.17" stroke-linecap="round"/>
        <line data-bone="neck" data-side="center" x1="169.622" y1="161.004" x2="177.197" y2="169.417" stroke="#111111" stroke-width="7.17" stroke-linecap="round"/>
        <line data-bone="head" data-side="center" x1="177.197" y1="169.417" x2="193.609" y2="187.645" stroke="#111111" stroke-width="7.17" stroke-linecap="round"/>
        <ellipse data-part="head" cx="185.403" cy="178.531" rx="9.434" ry="12.075" transform="rotate(138.000 185.403 178.531)" fill="#ffffff" stroke="#111111" stroke-width="6.038"/>
        <line data-bone="hipR" data-side="right" x1="135.534" y1="123.146" x2="135.534" y2="123.146" stroke="#111111" stroke-width="7.17" stroke-linecap="round"/>
        <line data-bone="clavicleR" data-side="right" x1="169.622" y1="161.004" x2="169.622" y2="161.004" stroke="#111111" stroke-width="7.17" stroke-linecap="round"/>
        <line data-bone="footR" data-side="right" x1="82.505" y1="198.878" x2="98.462" y2="204.686" stroke="#111111" stroke-width="7.17" stroke-linecap="round"/>
        <line data-bone="shinR" data-side="right" x1="109.019" y1="161.012" x2="82.505" y2="198.878" stroke="#111111" stroke-width="7.17" stroke-linecap="round"/>
        <line data-bone="thighR" data-side="right" x1="135.534" y1="123.146" x2="109.019" y2="161.012" stroke="#111111" stroke-width="7.17" stroke-linecap="round"/>
        <line data-bone="upperArmR" data-side="right" x1="169.622" y1="161.004" x2="189.633" y2="184.852" stroke="#111111" stroke-width="7.17" stroke-linecap="round"/>
        <line data-bone="forearmR" data-side="right" x1="189.633" y1="184.852" x2="207.219" y2="205.81" stroke="#111111" stroke-width="7.17" stroke-linecap="round"/>
        <line data-bone="handR" data-side="right" x1="207.219" y1="205.81" x2="217.495" y2="207.254" stroke="#111111" stroke-width="7.17" stroke-linecap="round"/>
      </g>
    </svg>
  </g>
  <g transform="translate(1500 0)">
    <svg viewBox="0 0 300 280" width="300" height="280" data-pose="adho-mukha-svanasana" data-style="poster" role="img" aria-label="poster (Adho Mukha Śvānāsana)">
      <defs>
        <marker id="asanakit-arrow" viewBox="0 0 10 10" refX="8" refY="5" markerWidth="5" markerHeight="5" orient="auto-start-reverse" markerUnits="strokeWidth">
          <path d="M 0 0 L 10 5 L 0 10 z" fill="#bc4b51"/>
        </marker>
      </defs>
      <rect data-layer="background" x="0" y="0" width="300" height="280" fill="#fdf6ec"/>
      <g data-layer="title">
        <text x="150" y="24.15" text-anchor="middle" fill="#111111" font-family="Helvetica Neue, Helvetica, Arial, sans-serif" font-size="21" font-weight="600">poster</text>
        <text x="150" y="42" text-anchor="middle" fill="#666666" font-family="Helvetica Neue, Helvetica, Arial, sans-serif" font-size="11.55" font-style="italic">Adho Mukha Śvānāsana</text>
      </g>
      <g data-layer="props">
        <rect data-prop="mat" x="22.642" y="203.104" width="254.717" height="8.302" rx="4.151" fill="#8cb369" stroke="#1d1d1b" stroke-width="2.264"/>
      </g>
      <g data-layer="figure">
        <line data-bone="upperArmL" data-side="left" x1="169.622" y1="161.004" x2="189.633" y2="184.852" stroke="#6e6e6a" stroke-width="5.66" stroke-linecap="round" opacity="0.45"/>
        <line data-bone="forearmL" data-side="left" x1="189.633" y1="184.852" x2="207.219" y2="205.81" stroke="#6e6e6a" stroke-width="5.66" stroke-linecap="round" opacity="0.45"/>
        <line data-bone="handL" data-side="left" x1="207.219" y1="205.81" x2="217.495" y2="207.254" stroke="#6e6e6a" stroke-width="5.66" stroke-linecap="round" opacity="0.45"/>
        <line data-bone="footL" data-side="left" x1="82.505" y1="198.878" x2="98.462" y2="204.686" stroke="#6e6e6a" stroke-width="5.66" stroke-linecap="round" opacity="0.45"/>
        <line data-bone="shinL" data-side="left" x1="109.019" y1="161.012" x2="82.505" y2="198.878" stroke="#6e6e6a" stroke-width="5.66" stroke-linecap="round" opacity="0.45"/>
        <line data-bone="thighL" data-side="left" x1="135.534" y1="123.146" x2="109.019" y2="161.012" stroke="#6e6e6a" stroke-width="5.66" stroke-linecap="round" opacity="0.45"/>
        <line data-bone="clavicleL" data-side="left" x1="169.622" y1="161.004" x2="169.622" y2="161.004" stroke="#6e6e6a" stroke-width="5.66" stroke-linecap="round" opacity="0.45"/>
        <line data-bone="hipL" data-side="left" x1="135.534" y1="123.146" x2="135.534" y2="123.146" stroke="#6e6e6a" stroke-width="5.66" stroke-linecap="round" opacity="0.45"/>
        <line data-bone="pelvis" data-side="center" x1="135.534" y1="123.146" x2="148.159" y2="137.167" stroke="#1d1d1b" stroke-width="5.66" stroke-linecap="round"/>
        <path data-part="torso" d="M169.622,161.004C169.622,161.004,169.622,161.004,169.622,161.004C169.622,161.004,135.534,123.146,135.534,123.146C135.534,123.146,135.534,123.146,135.534,123.146C135.534,123.146,135.534,123.146,135.534,123.146C135.534,123.146,169.622,161.004,169.622,161.004C169.622,161.004,169.622,161.004,169.622,161.004" fill="#1d1d1b" stroke="#1d1d1b" stroke-width="9.434" stroke-linejoin="round"/>
        <line data-bone="spine" data-side="center" x1="148.159" y1="137.167" x2="169.622" y2="161.004" stroke="#1d1d1b" stroke-width="5.66" stroke-linecap="round"/>
        <line data-bone="neck" data-side="center" x1="169.622" y1="161.004" x2="177.197" y2="169.417" stroke="#1d1d1b" stroke-width="5.66" stroke-linecap="round"/>
        <line data-bone="head" data-side="center" x1="177.197" y1="169.417" x2="193.609" y2="187.645" stroke="#1d1d1b" stroke-width="5.66" stroke-linecap="round"/>
        <ellipse data-part="head" cx="185.403" cy="178.531" rx="9.434" ry="12.453" transform="rotate(138.000 185.403 178.531)" fill="#f4a259" stroke="#1d1d1b" stroke-width="4.906"/>
        <line data-bone="hipR" data-side="right" x1="135.534" y1="123.146" x2="135.534" y2="123.146" stroke="#1d1d1b" stroke-width="5.66" stroke-linecap="round"/>
        <line data-bone="clavicleR" data-side="right" x1="169.622" y1="161.004" x2="169.622" y2="161.004" stroke="#1d1d1b" stroke-width="5.66" stroke-linecap="round"/>
        <line data-bone="footR" data-side="right" x1="82.505" y1="198.878" x2="98.462" y2="204.686" stroke="#1d1d1b" stroke-width="5.66" stroke-linecap="round"/>
        <line data-bone="shinR" data-side="right" x1="109.019" y1="161.012" x2="82.505" y2="198.878" stroke="#1d1d1b" stroke-width="5.66" stroke-linecap="round"/>
        <line data-bone="thighR" data-side="right" x1="135.534" y1="123.146" x2="109.019" y2="161.012" stroke="#1d1d1b" stroke-width="5.66" stroke-linecap="round"/>
        <line data-bone="upperArmR" data-side="right" x1="169.622" y1="161.004" x2="189.633" y2="184.852" stroke="#1d1d1b" stroke-width="5.66" stroke-linecap="round"/>
        <line data-bone="forearmR" data-side="right" x1="189.633" y1="184.852" x2="207.219" y2="205.81" stroke="#1d1d1b" stroke-width="5.66" stroke-linecap="round"/>
        <line data-bone="handR" data-side="right" x1="207.219" y1="205.81" x2="217.495" y2="207.254" stroke="#1d1d1b" stroke-width="5.66" stroke-linecap="round"/>
        <g data-part="joints">
          <circle data-joint="shoulderL" cx="169.622" cy="161.004" r="3.019" fill="#6e6e6a"/>
          <circle data-joint="elbowL" cx="189.633" cy="184.852" r="3.019" fill="#6e6e6a"/>
          <circle data-joint="wristL" cx="207.219" cy="205.81" r="3.019" fill="#6e6e6a"/>
          <circle data-joint="shoulderR" cx="169.622" cy="161.004" r="3.019" fill="#1d1d1b"/>
          <circle data-joint="elbowR" cx="189.633" cy="184.852" r="3.019" fill="#1d1d1b"/>
          <circle data-joint="wristR" cx="207.219" cy="205.81" r="3.019" fill="#1d1d1b"/>
          <circle data-joint="hipJointL" cx="135.534" cy="123.146" r="3.019" fill="#6e6e6a"/>
          <circle data-joint="kneeL" cx="109.019" cy="161.012" r="3.019" fill="#6e6e6a"/>
          <circle data-joint="ankleL" cx="82.505" cy="198.878" r="3.019" fill="#6e6e6a"/>
          <circle data-joint="hipJointR" cx="135.534" cy="123.146" r="3.019" fill="#1d1d1b"/>
          <circle data-joint="kneeR" cx="109.019" cy="161.012" r="3.019" fill="#1d1d1b"/>
          <circle data-joint="ankleR" cx="82.505" cy="198.878" r="3.019" fill="#1d1d1b"/>
          <circle data-joint="chest" cx="169.622" cy="161.004" r="3.019" fill="#1d1d1b"/>
          <circle data-joint="hipCenter" cx="135.534" cy="123.146" r="3.019" fill="#1d1d1b"/>
        </g>
      </g>
    </svg>
  </g>
  <g transform="translate(1800 0)">
    <svg viewBox="0 0 300 280" width="300" height="280" data-pose="adho-mukha-svanasana" data-style="minimal" role="img" aria-label="minimal (Adho Mukha Śvānāsana)">
      <defs>
        <marker id="asanakit-arrow" viewBox="0 0 10 10" refX="8" refY="5" markerWidth="5" markerHeight="5" orient="auto-start-reverse" markerUnits="strokeWidth">
          <path d="M 0 0 L 10 5 L 0 10 z" fill="#9aa0a6"/>
        </marker>
      </defs>
      <rect data-layer="background" x="0" y="0" width="300" height="280" fill="#ffffff"/>
      <g data-layer="title">
        <text x="150" y="24.15" text-anchor="middle" fill="#111111" font-family="Helvetica Neue, Helvetica, Arial, sans-serif" font-size="21" font-weight="600">minimal</text>
        <text x="150" y="42" text-anchor="middle" fill="#666666" font-family="Helvetica Neue, Helvetica, Arial, sans-serif" font-size="11.55" font-style="italic">Adho Mukha Śvānāsana</text>
      </g>
      <g data-layer="props">
        <rect data-prop="mat" x="22.642" y="203.104" width="254.717" height="8.302" rx="4.151" fill="#f0f0f0" stroke="#111111" stroke-width="1.509"/>
      </g>
      <g data-layer="figure">
        <line data-bone="upperArmL" data-side="left" x1="169.622" y1="161.004" x2="189.633" y2="184.852" stroke="#c6cbd0" stroke-width="1.887" stroke-linecap="round" opacity="0.45"/>
        <line data-bone="forearmL" data-side="left" x1="189.633" y1="184.852" x2="207.219" y2="205.81" stroke="#c6cbd0" stroke-width="1.887" stroke-linecap="round" opacity="0.45"/>
        <line data-bone="handL" data-side="left" x1="207.219" y1="205.81" x2="217.495" y2="207.254" stroke="#c6cbd0" stroke-width="1.887" stroke-linecap="round" opacity="0.45"/>
        <line data-bone="footL" data-side="left" x1="82.505" y1="198.878" x2="98.462" y2="204.686" stroke="#c6cbd0" stroke-width="1.887" stroke-linecap="round" opacity="0.45"/>
        <line data-bone="shinL" data-side="left" x1="109.019" y1="161.012" x2="82.505" y2="198.878" stroke="#c6cbd0" stroke-width="1.887" stroke-linecap="round" opacity="0.45"/>
        <line data-bone="thighL" data-side="left" x1="135.534" y1="123.146" x2="109.019" y2="161.012" stroke="#c6cbd0" stroke-width="1.887" stroke-linecap="round" opacity="0.45"/>
        <line data-bone="clavicleL" data-side="left" x1="169.622" y1="161.004" x2="169.622" y2="161.004" stroke="#c6cbd0" stroke-width="1.887" stroke-linecap="round" opacity="0.45"/>
        <line data-bone="hipL" data-side="left" x1="135.534" y1="123.146" x2="135.534" y2="123.146" stroke="#c6cbd0" stroke-width="1.887" stroke-linecap="round" opacity="0.45"/>
        <line data-bone="pelvis" data-side="center" x1="135.534" y1="123.146" x2="148.159" y2="137.167" stroke="#9aa0a6" stroke-width="1.887" stroke-linecap="round"/>
        <line data-bone="spine" data-side="center" x1="148.159" y1="137.167" x2="169.622" y2="161.004" stroke="#9aa0a6" stroke-width="1.887" stroke-linecap="round"/>
        <line data-bone="neck" data-side="center" x1="169.622" y1="161.004" x2="177.197" y2="169.417" stroke="#9aa0a6" stroke-width="1.887" stroke-linecap="round"/>
        <line data-bone="head" data-side="center" x1="177.197" y1="169.417" x2="193.609" y2="187.645" stroke="#9aa0a6" stroke-width="1.887" stroke-linecap="round"/>
        <ellipse data-part="head" cx="185.403" cy="178.531" rx="8.679" ry="11.698" transform="rotate(138.000 185.403 178.531)" fill="#ffffff" stroke="#9aa0a6" stroke-width="1.887"/>
        <line data-bone="hipR" data-side="right" x1="135.534" y1="123.146" x2="135.534" y2="123.146" stroke="#9aa0a6" stroke-width="1.887" stroke-linecap="round"/>
        <line data-bone="clavicleR" data-side="right" x1="169.622" y1="161.004" x2="169.622" y2="161.004" stroke="#9aa0a6" stroke-width="1.887" stroke-linecap="round"/>
        <line data-bone="footR" data-side="right" x1="82.505" y1="198.878" x2="98.462" y2="204.686" stroke="#9aa0a6" stroke-width="1.887" stroke-linecap="round"/>
        <line data-bone="shinR" data-side="right" x1="109.019" y1="161.012" x2="82.505" y2="198.878" stroke="#9aa0a6" stroke-width="1.887" stroke-linecap="round"/>
        <line data-bone="thighR" data-side="right" x1="135.534" y1="123.146" x2="109.019" y2="161.012" stroke="#9aa0a6" stroke-width="1.887" stroke-linecap="round"/>
        <line data-bone="upperArmR" data-side="right" x1="169.622" y1="161.004" x2="189.633" y2="184.852" stroke="#9aa0a6" stroke-width="1.887" stroke-linecap="round"/>
        <line data-bone="forearmR" data-side="right" x1="189.633" y1="184.852" x2="207.219" y2="205.81" stroke="#9aa0a6" stroke-width="1.887" stroke-linecap="round"/>
        <line data-bone="handR" data-side="right" x1="207.219" y1="205.81" x2="217.495" y2="207.254" stroke="#9aa0a6" stroke-width="1.887" stroke-linecap="round"/>
      </g>
    </svg>
  </g>
</svg>